<svg aria-hidden="true" style="position:absolute;width:0;height:0" xmlns="http://www.w3.org/2000/svg" overflow="hidden"><defs><symbol id="icon-komputer" viewBox="0 0 32 32"><path d="M30 25h-9.5v2.5l2 2v.5h-13v-.5l2-2V25H2a1.5 1.5 0 0 1-1.5-1.5v-20A1.5 1.5 0 0 1 2 2h28a1.5 1.5 0 0 1 1.5 1.5v20A1.5 1.5 0 0 1 30 25zm-.5-21h-27v17h27zM13 11c.414 0 .79.168 1.06.439l.94.94 2.94-2.94a1.5 1.5 0 1 1 2.121 2.12l-.001.001-4 4a1.493 1.493 0 0 1-2.122 0l-2-2A1.5 1.5 0 0 1 12.999 11H13z"/></symbol><symbol id="icon-alarm" viewBox="0 0 32 32"><path d="M30.74 10.003c-1.623-3.716-4.527-6.62-8.142-8.204l-.101-.039c1-.787 2.258-1.26 3.629-1.26A5.874 5.874 0 0 1 32 6.374v.003a5.822 5.822 0 0 1-1.269 3.637l.009-.012zM30.5 16.5c0 3.852-1.512 7.343-3.963 9.94l2.029 2.028a1.483 1.483 0 0 1-2.098 2.096l-2.18-2.178a14.299 14.299 0 0 1-8.278 2.613h-.012.001-.012a14.35 14.35 0 0 1-8.309-2.633l.045.03-2.163 2.163a1.498 1.498 0 0 1-2.59-1.03c0-.429.18-.816.468-1.089l.001-.001 2.011-2.012c-2.443-2.596-3.951-6.083-3.951-9.928 0-8.008 6.492-14.5 14.5-14.5s14.5 6.492 14.5 14.5zM16 5C9.649 5 4.5 10.148 4.5 16.5 4.5 22.851 9.649 28 16 28s11.5-5.15 11.5-11.5C27.5 10.148 22.35 5 16 5zm6 13h-6a1.5 1.5 0 0 1-1.5-1.5v-8a1.5 1.5 0 0 1 3 0V15H22a1.5 1.5 0 0 1 0 3zM1.287 10.205A5.93 5.93 0 0 1 0 6.503V6.5a6 6 0 0 1 6-6c1.4 0 2.685.483 3.706 1.287-3.795 1.658-6.761 4.624-8.379 8.315l-.04.103z"/></symbol><symbol id="icon-book" viewBox="0 0 32 32"><path d="M31.065 25.89l-14.471 5.987a1.485 1.485 0 0 1-1.198-.004l.01.004L.936 25.89A1.503 1.503 0 0 1 0 24.5v-23A1.5 1.5 0 0 1 2.083.118l-.01-.004.003.001.013.005L16 5.875 29.928.113A1.5 1.5 0 0 1 32 1.499v23c0 .625-.382 1.16-.925 1.386l-.01.004zM14.5 8.502L3 3.743v19.754l11.5 4.759zM29 3.743l-11.5 4.76v19.753l11.5-4.76zm-9.12 6.891l5.5-2.5a1.5 1.5 0 0 1 1.251 2.727l-.009.004-5.5 2.5a1.5 1.5 0 0 1-1.251-2.727l.009-.004zm0 5.5l5.5-2.5a1.499 1.499 0 0 1 2.12 1.364v.001a1.5 1.5 0 0 1-.871 1.362l-.009.004-5.5 2.5a1.5 1.5 0 0 1-1.249-2.726l.009-.004zm0 5.5l5.5-2.5a1.5 1.5 0 0 1 1.251 2.727l-.009.004-5.5 2.5a1.5 1.5 0 0 1-1.251-2.727l.009-.004zM6 8c.221 0 .431.048.62.134l5.5 2.5a1.5 1.5 0 1 1-1.25 2.727l.01.004-5.5-2.5A1.5 1.5 0 0 1 6 8zm0 5.5c.221 0 .431.048.62.134l5.5 2.5a1.5 1.5 0 1 1-1.249 2.726l.009.004v.001l-5.5-2.5A1.5 1.5 0 0 1 6 13.5zM6 19c.221 0 .431.048.62.134l5.5 2.5a1.5 1.5 0 1 1-1.25 2.727l.01.004-5.5-2.5A1.5 1.5 0 0 1 6 19z"/></symbol><symbol id="icon-home" viewBox="0 0 32 32"><path d="M32 17a1.5 1.5 0 0 1-1.5 1.5 1.488 1.488 0 0 1-1.021-.407l.001.001-.003.004L16 4.622 2.554 18.068a1.5 1.5 0 1 1-2.093-2.15l.001-.001L14.918 1.459c.273-.283.656-.46 1.08-.46H16c.027 0 .053 0 .08.002h.012c.032.002.057.005.081.008l-.009-.001c.367.04.694.212.933.468L23 7.376V5.999a1.5 1.5 0 0 1 3 0v4.378l5.598 5.598-.004.004c.25.268.406.625.406 1.02zm-3 2.5V30a1.5 1.5 0 0 1-1.5 1.5h-3v-12h-6v12h-14A1.5 1.5 0 0 1 3 30V19.5l13-13zm-15.5 0h-6v6h6z"/></symbol><symbol id="icon-image" viewBox="0 0 32 32"><path d="M30.5 32h-29A1.5 1.5 0 0 1 0 30.5v-29A1.5 1.5 0 0 1 1.5 0h29A1.5 1.5 0 0 1 32 1.5v29a1.5 1.5 0 0 1-1.5 1.5zM29 3H3v26h26zM12 4.5a1.5 1.5 0 0 1 0 3H7.5V12a1.5 1.5 0 0 1-3 0V4.5zM4.5 20a1.5 1.5 0 0 1 3 0v4.5H12a1.5 1.5 0 0 1 0 3H4.5zM20 4.5h7.5V12a1.5 1.5 0 0 1-3 0V7.5H20a1.5 1.5 0 0 1 0-3zm0 20h4.5V20a1.5 1.5 0 0 1 3 0v7.5H20a1.5 1.5 0 0 1 0-3z"/></symbol><symbol id="icon-line-graph" viewBox="0 0 32 32"><path d="M30.5 32h-29A1.5 1.5 0 0 1 0 30.5v-29A1.5 1.5 0 0 1 1.5 0h29A1.5 1.5 0 0 1 32 1.5v29a1.5 1.5 0 0 1-1.5 1.5zM29 3H3v26h26zM5.215 16.238l4-2.5c.223-.14.494-.223.785-.223.314 0 .605.097.845.263l-.005-.003.006-.008 6.63 4.42 7.639-5.391a1.5 1.5 0 0 1 1.767 2.424l-.004.003-8.5 6a1.487 1.487 0 0 1-1.744.009l.005.003-6.657-4.438-3.135 1.96a1.5 1.5 0 0 1-1.635-2.513l.005-.003z"/></symbol></defs></svg>