<svg aria-hidden="true" style="position:absolute;width:0;height:0" xmlns="http://www.w3.org/2000/svg" overflow="hidden"><defs><symbol id="icon-MAGNIFYING" viewBox="0 0 32 32"><path d="M31.644 28.711a2.933 2.933 0 0 1-5.007 2.074l-8.597-8.597a11.654 11.654 0 0 1-5.951 1.634c-6.48 0-11.733-5.253-11.733-11.733S5.609.356 12.089.356 23.822 5.61 23.822 12.089c0 2.175-.602 4.205-1.634 5.951l8.597 8.597c.531.531.859 1.264.859 2.075zM12.089 3.288a8.8 8.8 0 1 0 0 17.6 8.8 8.8 0 0 0 0-17.6z"/></symbol><symbol id="icon-SHOPPING" viewBox="0 0 38 32"><path d="M37.815 7.814l.003.001-5.28 11.733a1.76 1.76 0 0 1-1.488 1.034l-15.206 1.013.878 2.51h16.557a3.52 3.52 0 1 1-3.52 3.521H13.332a3.52 3.52 0 1 1-3.52-3.521h3.181L6.217 4.746H2.185a1.76 1.76 0 0 1 0-3.52h5.28c.768 0 1.414.495 1.655 1.181l.007-.003 1.025 2.929h26.061c.972 0 1.76.787 1.76 1.76 0 .257-.058.499-.158.721zm-26.43 1.039l3.254 9.295 15.124-1.009 3.729-8.287z"/></symbol></defs></svg>