<svg aria-hidden="true" style="position:absolute;width:0;height:0" xmlns="http://www.w3.org/2000/svg" overflow="hidden"><defs><symbol id="icon-facebook" viewBox="0 0 15 32"><path d="M14.879.245v5.072s-3.739-.373-4.675 1.06c-.512.783-.208 3.076-.253 4.723h4.959c-.419 1.926-.72 3.23-1.028 4.897H9.923v15.758h-6.87V16.058H.13v-4.959h2.891c.148-3.625.204-7.217 2.005-9.046C7.05-.003 8.98.244 14.879.244z"/></symbol><symbol id="icon-instagram" viewBox="0 0 32 32"><path d="M27.938 31.753H4.307a3.939 3.939 0 0 1-3.938-3.939V4.183A3.939 3.939 0 0 1 4.307.244h23.631a3.94 3.94 0 0 1 3.939 3.939v23.631a3.939 3.939 0 0 1-3.939 3.939zM16.123 9.894a6.1 6.1 0 0 0-5.536 3.545h-.005c-.01.022-.017.046-.027.067a6.132 6.132 0 0 0-.158.395c-.024.065-.049.127-.07.191a5.867 5.867 0 0 0-.117.418c-.017.066-.036.13-.051.197a6.11 6.11 0 0 0-.075.453c-.008.062-.021.122-.028.184a6.104 6.104 0 0 0 6.069 6.758 6.104 6.104 0 0 0 6.069-6.758c-.007-.062-.02-.123-.028-.184a6.11 6.11 0 0 0-.075-.453c-.015-.067-.034-.131-.051-.197a5.867 5.867 0 0 0-.117-.418c-.021-.065-.047-.127-.07-.191a6.132 6.132 0 0 0-.158-.395c-.01-.022-.017-.045-.027-.067h-.006a6.1 6.1 0 0 0-5.536-3.545zm12.209-4.529c0-.87-.705-1.575-1.575-1.575h-3.151c-.87 0-1.575.705-1.575 1.575v3.151c0 .87.705 1.575 1.575 1.575h3.151c.87 0 1.575-.705 1.575-1.575zm0 8.074h-2.904a9.648 9.648 0 0 1-9.305 12.209 9.648 9.648 0 0 1-9.305-12.209H3.914v13.194c0 .871.705 1.576 1.575 1.576h21.268c.87 0 1.575-.705 1.575-1.576z"/></symbol><symbol id="icon-pinterest" viewBox="0 0 25 32"><path d="M9.909 20.743c-.257 1.026-.516 2.1-.785 3.151-.265 1.036-.498 2.087-.883 3.039-.639 1.577-1.45 3.101-2.515 4.334-.707.821-.557.493-.77.449-.162-.034-.177-.193-.209-.424-.173-1.254-.055-2.702.009-4.11.073-1.604.411-2.939.724-4.272.596-2.54 1.165-5.03 1.766-7.586.04-.17.148-.451.111-.548-.273-.71-.45-1.348-.527-2.093a6.642 6.642 0 0 1 .172-2.392c.34-1.302 1.123-2.456 2.331-2.878.768-.266 1.618-.146 2.135.163.532.318.897.82 1.067 1.532.182.758.048 1.663-.098 2.329-.329 1.499-.76 2.625-1.153 4.073-.195.718-.415 1.455-.233 2.23a2.59 2.59 0 0 0 1.043 1.569c.524.381 1.144.59 1.999.56 1.511-.053 2.561-1.019 3.263-1.93 1.123-1.458 1.803-3.426 2.061-5.768.083-.755.144-1.623.086-2.479-.107-1.58-.602-2.851-1.386-3.836-.746-.938-1.805-1.685-3.092-2.105-1.276-.417-3.043-.555-4.613-.287-2.852.489-4.864 2.11-6.048 4.348-.621 1.172-1.03 2.52-1.03 4.197 0 1.293.319 2.295.834 3.077.163.248.404.452.564.735.227.401-.035.998-.147 1.433-.135.523-.149 1.246-.76 1.258-.253.004-.571-.18-.785-.299-1.606-.888-2.581-2.502-2.981-4.596-.243-1.272-.243-2.756 0-3.986a11.403 11.403 0 0 1 1.153-3.177c1.002-1.849 2.47-3.328 4.257-4.385C6.843 1.256 8.393.687 10.278.412 10.904.32 11.551.283 12.253.25a11.857 11.857 0 0 1 5.324.996 10.884 10.884 0 0 1 3.668 2.641c1.031 1.126 1.782 2.436 2.258 4.073.248.852.489 1.763.489 2.815 0 1.056-.223 1.985-.379 2.915-.583 3.481-2.239 6.327-4.723 7.948a8.172 8.172 0 0 1-2.159.996c-.821.239-1.757.418-2.76.349-.974-.067-1.771-.332-2.441-.71-.665-.376-1.224-.836-1.62-1.532z"/></symbol><symbol id="icon-twitter" viewBox="0 0 38 32"><path d="M25.473.874C28.432.821 30.007 1.9 31.511 3.27c1.277-.109 2.936-.823 3.914-1.319l.95-.519c-.558 1.508-1.315 2.689-2.479 3.586-.258.198-.515.468-.839.595v.018c1.658-.016 3.025-.765 4.324-1.171v.019c-.682 1.084-1.605 2.184-2.591 2.973l-1.193.947c.022 1.756-.026 3.431-.354 4.906-1.908 8.574-6.963 14.396-14.965 16.889-2.873.896-7.517 1.263-10.809.446-1.633-.405-3.107-.863-4.491-1.467-.769-.336-1.481-.7-2.162-1.116l-.671-.408c.743.022 1.611.227 2.441.093.751-.121 1.488-.089 2.18-.241 1.728-.38 3.263-.881 4.585-1.654.641-.375 1.613-.815 2.069-1.356-.858.015-1.636-.185-2.274-.409-2.471-.872-3.91-2.477-4.846-4.887.749.082 2.906.277 3.411-.148-.943-.052-1.849-.598-2.497-1.003-1.988-1.244-3.609-3.33-3.597-6.54l.783.371c.499.211 1.007.323 1.603.447.252.052.755.199 1.044.092H5.01c-.385-.446-1.011-.746-1.398-1.226-1.275-1.585-2.471-4.025-1.715-6.931.192-.737.496-1.387.82-1.988l.037.018c.148.311.48.539.689.799.651.807 1.455 1.534 2.274 2.174 2.79 2.182 5.302 3.523 9.337 4.515 1.024.252 2.207.445 3.429.447-.343-1-.233-2.618.037-3.587.68-2.434 2.157-4.188 4.324-5.127A9.232 9.232 0 0 1 24.54.987l.932-.111z"/></symbol></defs></svg>