 <svg aria-hidden="true" style="position: absolute; width: 0; height: 0; overflow: hidden;" version="1.1"
     xmlns="http://www.w3.org/2000/svg" xmlns:xlink="http://www.w3.org/1999/xlink">
     <defs>
         <symbol id="icon-facebook" viewBox="0 0 15 32">
             <title>facebook</title>
             <path 
                 d="M14.879 0.245c0 1.817 0 5.072 0 5.072v0c0 0-3.739-0.373-4.675 1.060-0.512 0.783-0.208 3.076-0.253 4.723 1.632 0 3.327 0 4.959 0-0.419 1.926-0.72 3.23-1.028 4.897-1.412 0-3.959 0-3.959 0v0 15.758c0 0-4.673 0-6.87 0 0.001-4.858-0.001-10.526 0-15.697-1.067 0-1.856 0-2.923 0 0-1.817 0-3.141 0-4.959 1.035 0 1.855 0 2.891 0 0.148-3.625 0.204-7.217 2.005-9.046 2.024-2.056 3.954-1.809 9.853-1.809z">
             </path>
         </symbol>

         <symbol id="icon-instagram" viewBox="0 0 32 32">
             <title>instagram</title>
             <path 
                 d="M27.938 31.753h-23.631c-2.175 0-3.938-1.764-3.938-3.939v-23.631c0-2.175 1.763-3.939 3.938-3.939h23.631c2.175 0 3.939 1.764 3.939 3.939v23.631c0 2.175-1.763 3.939-3.939 3.939zM16.123 9.894c-2.456 0-4.568 1.454-5.536 3.545h-0.005c-0.010 0.022-0.017 0.046-0.027 0.067-0.058 0.129-0.109 0.262-0.158 0.395-0.024 0.065-0.049 0.127-0.070 0.191-0.045 0.137-0.082 0.277-0.117 0.418-0.017 0.066-0.036 0.13-0.051 0.197-0.032 0.149-0.054 0.3-0.075 0.453-0.008 0.062-0.021 0.122-0.028 0.184-0.023 0.215-0.036 0.433-0.036 0.654 0 3.372 2.733 6.104 6.105 6.104s6.105-2.733 6.105-6.104c0-0.221-0.013-0.439-0.036-0.654-0.007-0.062-0.020-0.123-0.028-0.184-0.021-0.153-0.043-0.304-0.075-0.453-0.015-0.067-0.034-0.131-0.051-0.197-0.035-0.141-0.072-0.281-0.117-0.418-0.021-0.065-0.047-0.127-0.070-0.191-0.049-0.133-0.1-0.266-0.158-0.395-0.010-0.022-0.017-0.045-0.027-0.067h-0.006c-0.969-2.091-3.080-3.545-5.536-3.545zM28.332 5.365c0-0.87-0.705-1.575-1.575-1.575h-3.151c-0.87 0-1.575 0.705-1.575 1.575v3.151c0 0.87 0.705 1.575 1.575 1.575h3.151c0.87 0 1.575-0.705 1.575-1.575zM28.332 13.439h-2.904c0.224 0.816 0.344 1.674 0.344 2.56 0 5.33-4.32 9.649-9.649 9.649s-9.649-4.319-9.649-9.649c0-0.886 0.12-1.745 0.344-2.56h-2.904v13.194c0 0.871 0.705 1.576 1.575 1.576h21.268c0.87 0 1.575-0.705 1.575-1.576z">
             </path>
         </symbol>

         <symbol id="icon-pinterest" viewBox="0 0 25 32">
             <title>pinterest</title>
             <path
                 d="M9.909 20.743c-0.257 1.026-0.516 2.1-0.785 3.151-0.265 1.036-0.498 2.087-0.883 3.039-0.639 1.577-1.45 3.101-2.515 4.334-0.707 0.821-0.557 0.493-0.77 0.449-0.162-0.034-0.177-0.193-0.209-0.424-0.173-1.254-0.055-2.702 0.009-4.11 0.073-1.604 0.411-2.939 0.724-4.272 0.596-2.54 1.165-5.030 1.766-7.586 0.040-0.17 0.148-0.451 0.111-0.548-0.273-0.71-0.45-1.348-0.527-2.093-0.090-0.856-0.021-1.654 0.172-2.392 0.34-1.302 1.123-2.456 2.331-2.878 0.768-0.266 1.618-0.146 2.135 0.163 0.532 0.318 0.897 0.82 1.067 1.532 0.182 0.758 0.048 1.663-0.098 2.329-0.329 1.499-0.76 2.625-1.153 4.073-0.195 0.718-0.415 1.455-0.233 2.23 0.167 0.712 0.538 1.202 1.043 1.569 0.524 0.381 1.144 0.59 1.999 0.56 1.511-0.053 2.561-1.019 3.263-1.93 1.123-1.458 1.803-3.426 2.061-5.768 0.083-0.755 0.144-1.623 0.086-2.479-0.107-1.58-0.602-2.851-1.386-3.836-0.746-0.938-1.805-1.685-3.092-2.105-1.276-0.417-3.043-0.555-4.613-0.287-2.852 0.489-4.864 2.11-6.048 4.348-0.621 1.172-1.030 2.52-1.030 4.197 0 1.293 0.319 2.295 0.834 3.077 0.163 0.248 0.404 0.452 0.564 0.735 0.227 0.401-0.035 0.998-0.147 1.433-0.135 0.523-0.149 1.246-0.76 1.258-0.253 0.004-0.571-0.18-0.785-0.299-1.606-0.888-2.581-2.502-2.981-4.596-0.243-1.272-0.243-2.756 0-3.986 0.234-1.189 0.671-2.287 1.153-3.177 1.002-1.849 2.47-3.328 4.257-4.385 1.374-0.813 2.924-1.382 4.809-1.657 0.626-0.092 1.273-0.129 1.975-0.162 2.053-0.097 3.919 0.368 5.324 0.996 1.483 0.663 2.667 1.546 3.668 2.641 1.031 1.126 1.782 2.436 2.258 4.073 0.248 0.852 0.489 1.763 0.489 2.815 0 1.056-0.223 1.985-0.379 2.915-0.583 3.481-2.239 6.327-4.723 7.948-0.603 0.392-1.331 0.755-2.159 0.996-0.821 0.239-1.757 0.418-2.76 0.349-0.974-0.067-1.771-0.332-2.441-0.71-0.665-0.376-1.224-0.836-1.62-1.532z">
             </path>
         </symbol>

         <symbol id="icon-twitter" viewBox="0 0 38 32">
             <title>twitter</title>
             <path
                 d="M25.473 0.874c2.959-0.053 4.534 1.026 6.038 2.396 1.277-0.109 2.936-0.823 3.914-1.319 0.317-0.173 0.634-0.347 0.95-0.519-0.558 1.508-1.315 2.689-2.479 3.586-0.258 0.198-0.515 0.468-0.839 0.595 0 0.005 0 0.012 0 0.018 1.658-0.016 3.025-0.765 4.324-1.171 0 0.006 0 0.012 0 0.019-0.682 1.084-1.605 2.184-2.591 2.973-0.398 0.315-0.795 0.631-1.193 0.947 0.022 1.756-0.026 3.431-0.354 4.906-1.908 8.574-6.963 14.396-14.965 16.889-2.873 0.896-7.517 1.263-10.809 0.446-1.633-0.405-3.107-0.863-4.491-1.467-0.769-0.336-1.481-0.7-2.162-1.116-0.224-0.136-0.447-0.272-0.671-0.408 0.743 0.022 1.611 0.227 2.441 0.093 0.751-0.121 1.488-0.089 2.18-0.241 1.728-0.38 3.263-0.881 4.585-1.654 0.641-0.375 1.613-0.815 2.069-1.356-0.858 0.015-1.636-0.185-2.274-0.409-2.471-0.872-3.91-2.477-4.846-4.887 0.749 0.082 2.906 0.277 3.411-0.148-0.943-0.052-1.849-0.598-2.497-1.003-1.988-1.244-3.609-3.33-3.597-6.54 0.261 0.124 0.522 0.248 0.783 0.371 0.499 0.211 1.007 0.323 1.603 0.447 0.252 0.052 0.755 0.199 1.044 0.092-0.012 0-0.025 0-0.037 0-0.385-0.446-1.011-0.746-1.398-1.226-1.275-1.585-2.471-4.025-1.715-6.931 0.192-0.737 0.496-1.387 0.82-1.988 0.012 0.006 0.025 0.012 0.037 0.018 0.148 0.311 0.48 0.539 0.689 0.799 0.651 0.807 1.455 1.534 2.274 2.174 2.79 2.182 5.302 3.523 9.337 4.515 1.024 0.252 2.207 0.445 3.429 0.447-0.343-1-0.233-2.618 0.037-3.587 0.68-2.434 2.157-4.188 4.324-5.127 0.518-0.225 1.093-0.389 1.696-0.521 0.311-0.037 0.621-0.074 0.932-0.111z">
             </path>
         </symbol>
     </defs>
 </svg>