<svg aria-hidden="true" style="position: absolute; width: 0; height: 0; overflow: hidden;" version="1.1" xmlns="http://www.w3.org/2000/svg" xmlns:xlink="http://www.w3.org/1999/xlink">
<defs>
<symbol id="icon-MAGNIFYING" viewBox="0 0 32 32">
<title>MAGNIFYING</title>
<path d="M31.644 28.711c0 1.62-1.313 2.933-2.933 2.933-0.81 0-1.544-0.328-2.074-0.859l-8.597-8.597c-1.746 1.032-3.776 1.634-5.951 1.634-6.48 0-11.733-5.253-11.733-11.733s5.253-11.733 11.733-11.733 11.733 5.254 11.733 11.733c0 2.175-0.602 4.205-1.634 5.951l8.597 8.597c0.531 0.531 0.859 1.264 0.859 2.075zM12.089 3.288c-4.86 0-8.8 3.94-8.8 8.8s3.94 8.8 8.8 8.8c4.86 0 8.8-3.94 8.8-8.8s-3.94-8.8-8.8-8.8z"></path>
</symbol>

<symbol id="icon-SHOPPING" viewBox="0 0 38 32">
<title>SHOPPING</title>
<path d="M37.815 7.814l0.003 0.001-5.28 11.733c-0.261 0.578-0.824 0.991-1.488 1.034l-15.206 1.013 0.878 2.51h16.557c1.944 0 3.52 1.577 3.52 3.521s-1.576 3.52-3.52 3.52c-1.944 0-3.52-1.575-3.52-3.52h-16.427c0 1.944-1.576 3.52-3.52 3.52s-3.52-1.575-3.52-3.52c0-1.944 1.576-3.521 3.52-3.521h3.181l-6.776-19.359h-4.032c-0.972 0-1.76-0.788-1.76-1.76s0.788-1.76 1.76-1.76h5.28c0.768 0 1.414 0.495 1.655 1.181l0.007-0.003 1.025 2.929h26.061c0.972 0 1.76 0.787 1.76 1.76 0 0.257-0.058 0.499-0.158 0.721zM11.385 8.853l3.254 9.295 15.124-1.009 3.729-8.287z"></path>
</symbol>
</defs>
</svg>
